<svg xmlns="http://www.w3.org/2000/svg" xmlns:xlink="http://www.w3.org/1999/xlink" xml:space="preserve" version="1.1" style="shape-rendering:geometricPrecision;text-rendering:geometricPrecision;image-rendering:optimizeQuality;" viewBox="0 0 847 1058.75" x="0px" y="0px" fill-rule="evenodd" clip-rule="evenodd"><defs><style type="text/css">
   
    .fil0 {fill:black}
   
  </style></defs><g><path class="fil0" d="M820 477c-39,40 -118,-1 -152,-34 -5,-5 -12,-6 -17,-3 -19,11 -43,16 -74,16 -28,0 -58,-7 -77,-18 -9,-5 -19,-1 -22,8 -19,65 -104,56 -145,10 -5,-6 -12,-7 -18,-4 -20,12 -49,18 -78,18 -33,0 -70,-6 -85,-18 -16,1 -99,58 -127,16 -7,-14 9,-43 45,-70 0,0 0,0 0,0l697 0c10,13 70,52 53,79z"/><path class="fil0" d="M331 561l-213 -11c-25,-3 -39,-19 -44,-42 27,-4 51,-15 75,-28 21,13 52,20 86,20l96 61z"/><path class="fil0" d="M577 485c27,0 54,-3 78,-14 33,28 82,51 124,51 -3,16 -15,26 -31,27l-224 14 53 -78z"/><path class="fil0" d="M475 582c-10,14 -29,17 -44,9l-149 -96c14,-3 26,-7 37,-12 52,51 147,57 181,-12 13,5 28,9 43,11l-68 100z"/><path class="fil0" d="M753 645c-216,4 -431,3 -649,-1 -46,-3 -42,-64 -4,-68 81,3 187,17 281,17 42,27 84,55 122,1 55,-4 209,-12 257,-17 37,8 34,68 -7,68z"/><path class="fil0" d="M633 792l-409 0c-70,0 -128,-53 -138,-120 58,5 592,5 684,-1 -9,68 -67,121 -137,121z"/><path class="fil0" d="M85 349c0,-165 151,-294 343,-294 188,0 343,117 343,313l-686 0 0 -19zm458 -223c24,0 44,20 44,44 0,24 -20,44 -44,44 -24,0 -44,-20 -44,-44 0,-24 20,-44 44,-44zm-307 113c22,0 39,17 39,38 0,21 -17,38 -39,38 -21,0 -38,-17 -38,-38 0,-21 17,-38 38,-38zm413 3c11,0 20,9 20,20 0,11 -9,19 -20,19 -11,0 -19,-8 -19,-19 0,-11 8,-20 19,-20zm-165 -23c21,0 39,17 39,38 0,21 -18,39 -39,39 -21,0 -38,-18 -38,-39 0,-21 17,-38 38,-38zm-122 -21c18,0 32,15 32,32 0,18 -14,33 -32,33 -18,0 -32,-15 -32,-33 0,-17 14,-32 32,-32zm-18 -43c11,0 20,9 20,19 0,11 -9,20 -20,20 -11,0 -19,-9 -19,-20 0,-10 8,-19 19,-19z"/></g></svg>