<svg xmlns:dc="http://purl.org/dc/elements/1.1/" xmlns:cc="http://creativecommons.org/ns#" xmlns:rdf="http://www.w3.org/1999/02/22-rdf-syntax-ns#" xmlns:svg="http://www.w3.org/2000/svg" xmlns="http://www.w3.org/2000/svg" xmlns:sodipodi="http://sodipodi.sourceforge.net/DTD/sodipodi-0.dtd" xmlns:inkscape="http://www.inkscape.org/namespaces/inkscape" version="1.1" x="0px" y="0px" viewBox="0 0 100 125"><g transform="translate(0,-952.36215)"><path style="font-size:medium;font-style:normal;font-variant:normal;font-weight:normal;font-stretch:normal;text-indent:0;text-align:start;text-decoration:none;line-height:normal;letter-spacing:normal;word-spacing:normal;text-transform:none;direction:ltr;block-progression:tb;writing-mode:lr-tb;text-anchor:start;baseline-shift:baseline;opacity:1;color:#000000;fill:#000000;fill-opacity:1;stroke:none;stroke-width:4;marker:none;visibility:visible;display:inline;overflow:visible;enable-background:accumulate;font-family:Sans;-inkscape-font-specification:Sans" d="M 50 14 C 46.287318 14 43.697996 16.98553 41.90625 20.03125 C 40.114504 23.07697 39 26.37095 39 29 A 2.0002 2.0002 0 0 0 39 29.125 L 40.15625 45.5625 L 31.25 49.125 A 2.0002 2.0002 0 0 0 30 51 L 30 57 A 2.0002 2.0002 0 0 0 32 59 L 41.09375 59 L 41.625 66.4375 L 29.15625 72.1875 A 2.0002 2.0002 0 0 0 28 74 L 28 80 A 2.0002 2.0002 0 0 0 30 82 L 42.71875 82 L 42.875 84.125 A 2.0002 2.0002 0 0 0 44.84375 86 L 55.15625 86 A 2.0002 2.0002 0 0 0 57.125 84.125 L 57.28125 82 L 70 82 A 2.0002 2.0002 0 0 0 72 80 L 72 74 A 2.0002 2.0002 0 0 0 70.84375 72.15625 L 58.375 66.40625 L 58.90625 59 L 68 59 A 2.0002 2.0002 0 0 0 70 57 L 70 51 A 2.0002 2.0002 0 0 0 68.75 49.125 L 59.84375 45.5625 L 61 29.125 A 2.0002 2.0002 0 0 0 61 29 C 61 26.37095 59.885496 23.07697 58.09375 20.03125 C 56.302004 16.98553 53.712682 14 50 14 z M 50 18 C 51.273318 18 53.194496 19.57772 54.65625 22.0625 C 55.99291 24.334633 56.83266 27.196597 56.96875 28.625 C 56.658494 28.829997 55.834289 29.233076 54.6875 29.5 C 53.409649 29.79743 51.775063 30 50 30 C 48.224937 30 46.590351 29.79743 45.3125 29.5 C 44.165711 29.233076 43.341506 28.829997 43.03125 28.625 C 43.167357 27.196597 44.00709 24.334633 45.34375 22.0625 C 46.805504 19.57772 48.726682 18 50 18 z M 43.28125 33.125 C 43.63949 33.231025 44.019296 33.316185 44.40625 33.40625 C 46.045362 33.78776 47.947493 34 50 34 C 52.052507 34 53.954638 33.78776 55.59375 33.40625 C 55.980704 33.316185 56.36051 33.231025 56.71875 33.125 L 53.28125 82 L 46.71875 82 L 43.28125 33.125 z M 40.4375 49.75 L 40.8125 55 L 34 55 L 34 52.34375 L 40.4375 49.75 z M 59.53125 49.75 L 66 52.34375 L 66 55 L 59.1875 55 L 59.53125 49.75 z M 41.9375 70.6875 L 42.4375 78 L 32 78 L 32 75.28125 L 41.9375 70.6875 z M 58.0625 70.6875 L 68 75.28125 L 68 78 L 57.5625 78 L 58.0625 70.6875 z " transform="translate(0,952.36215)"/></g></svg>