<svg xmlns:x="http://ns.adobe.com/Extensibility/1.0/" xmlns:i="http://ns.adobe.com/AdobeIllustrator/10.0/" xmlns:graph="http://ns.adobe.com/Graphs/1.0/" xmlns="http://www.w3.org/2000/svg" xmlns:xlink="http://www.w3.org/1999/xlink" version="1.1" x="0px" y="0px" viewBox="0 0 64 64" enable-background="new 0 0 64 64" xml:space="preserve"><metadata><sfw xmlns="http://ns.adobe.com/SaveForWeb/1.0/"><slices/><sliceSourceBounds height="16383" width="16389" x="-8165" y="-8160" bottomLeftOrigin="true"/></sfw></metadata><g><g><path d="M50.811,46.414l-5.94-8.225C44.957,37.049,45,36.002,45,35C45,22.082,33.266,7.952,32.766,7.357    c-0.38-0.452-1.152-0.452-1.532,0C30.734,7.952,19,22.082,19,35c0,1.009,0.042,2.03,0.13,3.189l-5.94,8.225    C13.066,46.585,13,46.79,13,47v11c0,0.553,0.448,1,1,1h5.25c0.265,0,0.52-0.105,0.707-0.293l4.962-4.962    C26.986,55.879,29.416,57,32,57c2.584,0,5.014-1.121,7.081-3.255l4.962,4.962C44.23,58.895,44.484,59,44.75,59H50    c0.553,0,1-0.447,1-1V47C51,46.79,50.934,46.585,50.811,46.414z M32,37c-2.757,0-5-2.243-5-5s2.243-5,5-5s5,2.243,5,5    S34.757,37,32,37z"/><path d="M32,29c-0.552,0-1,0.448-1,1s0.448,1,1,1c0.551,0,1,0.449,1,1c0,0.552,0.447,1,1,1s1-0.448,1-1C35,30.346,33.654,29,32,29    z"/></g></g></svg>